# xmcd
#
# Track frame offsets: 
#        150
#        18787
#        38812
#
# Disc length: 777 seconds
#
# Revision: 0
# Processed by: cddbd v1.5.2PL0 Copyright (c) Steve Scherf et al.
# Submitted via: ExactAudioCopyFreeDBPlugin 1.0
#
DISCID=16030703
DTITLE=The Chimes - I Still Haven't Found What I'm Looking For
DYEAR=1990
DGENRE=Soul
TTITLE0=I Still Haven't Found What I'm Looking For (Short-shuffle)
TTITLE1=I Still Haven't Found What I'm Looking For (Shuffle)
TTITLE2=I Still Haven't Found What I'm Looking For 
EXTD=
EXTT0=
EXTT1=
EXTT2=
PLAYORDER=
